<svg width="840" height="197" viewBox="0 0 840 197" fill="none" xmlns="http://www.w3.org/2000/svg">
<path d="M587.42 5.42999V37.15H581.21V5.42999H569V0.00999451H599.62V5.42999H587.42Z" fill="white"/>
<path d="M600.83 26.87V10.65H606.78V26.35C606.78 31.1 608.81 32.98 612.15 32.98C615.54 32.98 618.2 30.42 618.2 25.36V10.65H624.15V37.15H618.52V33.71H618.42C616.75 36.11 613.99 37.78 610.49 37.78C604.48 37.77 600.83 34.12 600.83 26.87ZM604.59 5.69V0H609.91V5.69H604.59ZM615.33 5.69V0H620.65V5.69H615.33Z" fill="white"/>
<path d="M647.16 10.54V15.81C646.43 15.65 645.75 15.6 645.07 15.6C640.32 15.6 637.71 18.62 637.71 24.15V37.14H631.76V10.64H637.29V14.55H637.39C639.16 11.68 641.67 10.27 644.95 10.27C645.65 10.28 646.49 10.39 647.16 10.54Z" fill="white"/>
<path d="M667.83 37.15L657.5 24.32H657.4V37.15H651.45V0.00999451H657.4V21.5H657.5L667.15 10.65H674.09L663.14 22.75L675.35 37.15H667.83Z" fill="white"/>
<path d="M678.16 5.69V0H684.11V5.69H678.16ZM678.16 37.15V10.65H684.11V37.15H678.16Z" fill="white"/>
<path d="M703.47 38.3C700.97 45.03 698.04 47.06 691.89 47.06C690.74 47.06 689.7 46.9 688.92 46.69V41.84C689.6 42.05 690.48 42.2 691.42 42.2C694.65 42.2 696.06 41 697.31 37.35L687.61 10.64H693.97L700.6 30.36H700.7L707.53 10.64H713.69L703.47 38.3Z" fill="white"/>
<path d="M734.04 29.17H740.14C739.15 33.92 734.87 37.93 727.93 37.93C719.84 37.93 715.1 32.14 715.1 23.58C715.1 15.75 719.8 9.86 727.83 9.86C733.88 9.86 738.26 13.36 739.72 18.88C740.24 20.55 740.45 22.53 740.45 25.09H720.99C721.2 31.09 724.22 33.54 727.93 33.54C731.33 33.55 733.52 31.72 734.04 29.17ZM721.11 21.19H734.52C734.1 16.55 731.39 14.25 727.84 14.25C724.24 14.25 721.63 16.59 721.11 21.19Z" fill="white"/>
<path d="M601.29 85.73C601.29 95.38 596.23 100.55 587.05 100.55C577.87 100.55 572.76 95.38 572.76 85.73V62.62H579.02V85.52C579.02 91.78 581.94 94.96 587.05 94.96C592.16 94.96 595.08 91.78 595.08 85.52V62.62H601.29V85.73Z" fill="white"/>
<path d="M614.24 94.92V95.02H629.06V99.77H607.04V94.81L621.33 78.12V78.01H607.56V73.26H628.53V78.22L614.24 94.92Z" fill="white"/>
<path d="M655.09 82.87V92.78C655.09 95.91 655.35 98.1 655.77 99.77H650.4C650.14 98.62 650.03 97.32 650.03 96.07H649.93C648 98.89 645.03 100.35 641.01 100.35C635.48 100.35 632.04 97.01 632.04 92.47C632.04 88.14 634.6 85.32 642.21 84.12C644.35 83.76 647.48 83.44 649.36 83.34V82.3C649.36 78.39 647.22 76.82 644.19 76.82C640.9 76.82 639.13 78.65 638.97 81.46H633.13C633.39 76.45 637.04 72.49 644.19 72.49C651.18 72.48 655.09 75.93 655.09 82.87ZM649.36 87.19C647.59 87.29 645.03 87.55 643.26 87.87C639.45 88.5 638.04 89.64 638.04 92.04C638.04 94.39 639.71 95.95 642.74 95.95C644.57 95.95 646.34 95.38 647.54 94.17C648.95 92.71 649.37 91.3 649.37 88.49V87.19H649.36Z" fill="white"/>
<path d="M673.2 100.91C670.7 107.64 667.77 109.67 661.62 109.67C660.47 109.67 659.43 109.51 658.65 109.31V104.46C659.33 104.67 660.21 104.83 661.15 104.83C664.38 104.83 665.79 103.63 667.04 99.98L657.34 73.27H663.7L670.33 92.99H670.43L677.26 73.27H683.42L673.2 100.91Z" fill="white"/>
<path d="M705.35 89.7L701.91 99.77H695.34L708.85 62.63H717.25L730.76 99.77H724.19L720.75 89.7H705.35ZM717.87 81.35C716.2 76.39 714.58 71.54 713.07 66.59H712.97C711.46 71.55 709.94 76.4 708.22 81.35L707.23 84.27H718.86L717.87 81.35Z" fill="white"/>
<path d="M740.93 100.81C740.93 107.17 737.49 109.68 732.58 109.68C731.48 109.68 730.49 109.52 729.55 109.32V104.88C730.02 104.98 730.49 105.04 731.01 105.04C733.57 105.04 734.97 103.84 734.97 100.03V73.27H740.92V100.81H740.93ZM734.99 68.31V62.62H740.94V68.31H734.99Z" fill="white"/>
<path d="M769.37 82.87V92.78C769.37 95.91 769.63 98.1 770.05 99.77H764.68C764.42 98.62 764.31 97.32 764.31 96.07H764.21C762.28 98.89 759.31 100.35 755.29 100.35C749.76 100.35 746.32 97.01 746.32 92.47C746.32 88.14 748.88 85.32 756.49 84.12C758.63 83.76 761.76 83.44 763.64 83.34V82.3C763.64 78.39 761.5 76.82 758.47 76.82C755.18 76.82 753.41 78.65 753.25 81.46H747.41C747.67 76.45 751.32 72.49 758.47 72.49C765.46 72.48 769.37 75.93 769.37 82.87ZM763.63 87.19C761.86 87.29 759.3 87.55 757.53 87.87C753.72 88.5 752.31 89.64 752.31 92.04C752.31 94.39 753.98 95.95 757.01 95.95C758.84 95.95 760.61 95.38 761.81 94.17C763.22 92.71 763.64 91.3 763.64 88.49V87.19H763.63Z" fill="white"/>
<path d="M800 83.54V99.76H794.05V84.06C794.05 79.31 792.02 77.44 788.68 77.44C785.29 77.44 782.63 80 782.63 85.06V99.77H776.68V73.27H782.31V76.71H782.41C784.08 74.31 786.84 72.64 790.34 72.64C796.34 72.64 800 76.29 800 83.54Z" fill="white"/>
<path d="M827.24 81.51H821.5C821.5 78.33 819.62 76.82 816.44 76.82C813.68 76.82 812.06 78.02 812.06 79.95C812.06 82.25 813.89 82.72 818.06 83.76C822.91 85.01 828.08 86.16 828.08 92.47C828.08 97.27 823.8 100.56 816.97 100.56C809.88 100.56 805.55 97.38 805.49 91.07H811.54C811.54 94.3 813.52 96.13 817.07 96.13C820.09 96.13 821.87 94.83 821.87 92.84C821.87 90.13 819.78 89.61 815.19 88.46C810.76 87.37 806.11 86.37 806.11 80.43C806.11 75.73 810.28 72.5 816.49 72.5C823.22 72.48 827.18 75.61 827.24 81.51Z" fill="white"/>
<path d="M833.92 99.77V73.27H839.87V99.77H833.92Z" fill="white"/>
<path d="M321.22 113.98C317.47 139.66 300.08 154.65 273.09 154.65C242.46 154.65 224.18 135.35 224.18 103.04V0.59H0V47.81H59.19V189.89H118.22V47.81H165.16V108.99C165.16 164.53 204.5 196.38 273.1 196.38C331.38 196.38 368.53 173.38 378.39 132.4L322.52 114.41L322.13 114.28L321.22 113.98Z" fill="#E1251B"/>
<path d="M430.38 0H321.22V113.98L380.77 94.63V32.55L417.26 82.77L476.3 63.59L430.38 0Z" fill="#E1251B"/>
<path d="M499.14 94.65L476.3 63.59L439.81 113.81L494.66 189.3H567.91L499.14 94.65Z" fill="#E1251B"/>
</svg>
